<svg width="30" height="23" viewBox="0 0 30 23" fill="none" xmlns="http://www.w3.org/2000/svg">
<path d="M19.9674 0.381899C20.0486 0.455825 20.1284 0.531379 20.2062 0.608887C20.3157 0.702036 20.3838 0.731188 20.524 0.752281C20.524 0.804722 20.524 0.857163 20.524 0.911193C20.6088 1.01815 20.6088 1.01815 20.723 1.12597C20.7648 1.16728 20.8066 1.2086 20.8496 1.25116C20.8938 1.29411 20.938 1.33706 20.9836 1.38131C21.0268 1.42385 21.07 1.46639 21.1145 1.51022C21.1985 1.59292 21.2827 1.67548 21.367 1.75787C21.4926 1.88072 21.6168 2.0049 21.7407 2.12952C21.8168 2.20582 21.893 2.2821 21.9692 2.35837C22.331 2.72068 22.331 2.72068 22.6928 3.08299C22.7234 3.11146 22.754 3.13993 22.7856 3.16925C22.8515 3.24191 22.8515 3.24191 22.8515 3.34785C22.8817 3.36014 22.9119 3.37243 22.943 3.38509C23.0926 3.47066 23.1796 3.57433 23.2912 3.7054C23.4369 3.87222 23.5807 4.02703 23.7508 4.16889C23.9094 4.30132 23.9094 4.30132 23.9623 4.40726C24.1226 4.4421 24.1226 4.4421 24.2797 4.46023C24.2448 4.49519 24.2099 4.53016 24.1739 4.56618C24.3283 4.76171 24.4768 4.91884 24.6721 5.07514C24.7658 5.15764 24.8434 5.2464 24.924 5.34171C25.1271 5.57689 25.3429 5.79682 25.5629 6.01609C25.605 6.05818 25.647 6.10027 25.6903 6.14363C25.8279 6.28145 25.9658 6.41909 26.1036 6.55672C26.1999 6.65298 26.2961 6.74925 26.3923 6.84553C26.619 7.07236 26.8458 7.29907 27.0727 7.52572C27.3303 7.78314 27.5878 8.0407 27.8453 8.29827C28.2855 8.7386 28.7257 9.17882 29.1662 9.61892C29.2205 9.67326 29.2205 9.67326 29.276 9.72869C29.3092 9.7617 29.3423 9.7947 29.3765 9.8287C29.4472 9.89973 29.5166 9.9721 29.5855 10.0449C29.6763 10.1406 29.6763 10.1406 29.8339 10.1811C29.8339 10.216 29.8339 10.251 29.8339 10.287C29.799 10.3045 29.7641 10.322 29.7281 10.34C29.743 10.3673 29.7579 10.3946 29.7733 10.4228C29.9875 10.8732 29.9717 11.3236 29.9719 11.8105C29.9727 11.9053 29.9736 12.0001 29.9746 12.0949C29.977 12.3515 29.978 12.608 29.9788 12.8645C29.9796 13.0795 29.9811 13.2945 29.9827 13.5094C29.9877 14.1949 29.9902 14.8804 29.9921 15.5659C29.9926 15.7435 29.9932 15.921 29.9938 16.0986C29.9964 16.8507 29.9982 17.6027 29.999 18.3548C29.9992 18.4653 29.9993 18.5758 29.9994 18.6862C29.9999 19.0017 30 19.3173 29.9997 19.6328C29.9997 19.7281 29.9997 19.8235 29.9998 19.9188C30.0017 21.7564 30.0017 21.7564 29.3942 22.3975C28.7923 22.9723 27.9997 22.9099 27.2154 22.9086C27.1243 22.9088 27.0331 22.9091 26.942 22.9094C26.6964 22.9101 26.4508 22.9102 26.2053 22.91C25.9994 22.91 25.7936 22.9102 25.5877 22.9105C25.1018 22.9111 24.6158 22.9111 24.1298 22.9108C23.6302 22.9105 23.1306 22.9111 22.631 22.9122C22.2004 22.9132 21.7697 22.9135 21.339 22.9133C21.0826 22.9132 20.8261 22.9134 20.5697 22.9141C20.3284 22.9148 20.0871 22.9147 19.8458 22.914C19.7579 22.9138 19.6699 22.914 19.5819 22.9144C18.2382 22.9207 18.2382 22.9207 17.7007 22.5464C17.6533 22.5147 17.606 22.4829 17.5573 22.4502C17.5238 22.4219 17.4904 22.3935 17.456 22.3644C17.456 22.3294 17.456 22.2944 17.456 22.2584C17.4036 22.2409 17.3513 22.2234 17.2973 22.2054C17.2973 22.1705 17.2973 22.1355 17.2973 22.0995C17.2553 22.0129 17.2122 21.9269 17.1684 21.8413C16.776 21 16.9799 19.7859 16.9799 18.8683C16.945 18.8683 16.9101 18.8683 16.8741 18.8683C16.8916 18.8158 16.9091 18.7634 16.927 18.7094C16.9896 18.4892 16.987 18.2755 16.9859 18.048C16.986 17.9802 16.986 17.9802 16.986 17.911C16.9859 17.7615 16.9855 17.6121 16.9851 17.4627C16.985 17.3589 16.9849 17.255 16.9849 17.1512C16.9847 16.8779 16.9842 16.6046 16.9836 16.3313C16.983 16.0531 16.9828 15.7749 16.9825 15.4967C16.982 15.008 16.9812 14.5194 16.9803 14.0307C16.9796 13.6776 16.9796 13.6776 17.0857 13.5182C17.2173 13.5182 17.3484 13.5201 17.4799 13.5231C17.5274 13.5242 17.5749 13.5252 17.6239 13.5263C17.6751 13.5275 17.7264 13.5286 17.7792 13.5298C17.8879 13.5322 17.9966 13.5347 18.1052 13.5371C18.2764 13.5409 18.4477 13.5447 18.6189 13.5486C18.7842 13.5523 18.9495 13.556 19.1148 13.5596C19.1911 13.5614 19.1911 13.5614 19.2688 13.5631C19.5286 13.5688 19.7881 13.5724 20.048 13.5712C20.1714 13.5712 20.2948 13.5712 20.4182 13.5712C20.4357 13.5362 20.4532 13.5013 20.4711 13.4653C20.4711 13.5177 20.4711 13.5701 20.4711 13.6242C20.5584 13.6242 20.6457 13.6242 20.7356 13.6242C20.7356 15.3547 20.7356 17.0853 20.7356 18.8683C23.354 18.8945 23.354 18.8945 26.0253 18.9213C26.0253 18.8688 26.0253 18.8164 26.0253 18.7623C26.0253 18.6564 26.0253 18.5505 26.0253 18.4445C26.0777 18.427 26.1301 18.4096 26.184 18.3915C26.184 17.57 26.184 16.7484 26.184 15.9019C26.1666 15.9019 26.1491 15.9019 26.1311 15.9019C26.1311 15.6922 26.1311 15.4824 26.1311 15.2663C26.1486 15.2663 26.166 15.2663 26.184 15.2663C26.184 14.2349 26.184 13.2036 26.184 12.141C26.1142 12.106 26.0444 12.0711 25.9724 12.0351C25.9164 11.933 25.9164 11.933 25.8666 11.8232C25.7922 11.7359 25.7922 11.7359 25.7059 11.6556C25.6599 11.6107 25.6599 11.6107 25.6129 11.5649C25.581 11.5343 25.5491 11.5038 25.5162 11.4722C25.4525 11.4111 25.3889 11.3497 25.3257 11.2881C25.2975 11.2611 25.2694 11.2342 25.2404 11.2064C25.179 11.1345 25.179 11.1345 25.179 11.0286C25.1462 11.0155 25.1135 11.0024 25.0798 10.9889C24.9488 10.9117 24.9171 10.8497 24.8616 10.7108C24.8267 10.7108 24.7918 10.7108 24.7558 10.7108C24.6919 10.6458 24.6919 10.6458 24.6128 10.5481C24.3306 10.2159 24.0192 9.91229 23.7109 9.60455C23.6046 9.49841 23.4986 9.39199 23.3927 9.28554C23.325 9.21779 23.2573 9.15006 23.1896 9.08235C23.1422 9.03476 23.1422 9.03476 23.0939 8.98621C22.9652 8.85809 22.8443 8.74603 22.6928 8.64492C22.61 8.55137 22.5327 8.4544 22.4548 8.35669C22.3742 8.26005 22.3742 8.26005 22.2167 8.22116C22.1624 8.13674 22.1624 8.13674 22.1143 8.03576C22.0628 7.93465 22.0628 7.93465 22.0052 7.85036C21.9702 7.84162 21.9353 7.83288 21.8994 7.82388C21.7936 7.79739 21.7936 7.79739 21.7332 7.71276C21.6802 7.61878 21.6309 7.52278 21.582 7.4266C21.5296 7.4266 21.4772 7.4266 21.4233 7.4266C21.4135 7.39054 21.4036 7.35449 21.3935 7.31734C21.2862 7.09779 21.1234 6.95697 20.9472 6.79095C20.8591 6.70266 20.7709 6.61438 20.6827 6.52609C20.6223 6.4674 20.6223 6.4674 20.5606 6.40753C20.495 6.34331 20.495 6.34331 20.4282 6.27779C20.3864 6.23717 20.3446 6.19654 20.3015 6.15468C20.2067 6.04936 20.2067 6.04936 20.2067 5.94342C20.175 5.92812 20.1434 5.91282 20.1108 5.89707C19.9951 5.83747 19.9951 5.83747 19.8364 5.73153C19.784 5.73153 19.7316 5.73153 19.6777 5.73153C19.675 5.69418 19.6724 5.65683 19.6696 5.61835C19.6091 5.41364 19.482 5.30056 19.3305 5.15879C19.2893 5.11889 19.2893 5.11889 19.2472 5.07819C19.1796 5.01297 19.1113 4.94842 19.0429 4.884C18.9644 4.91022 18.9644 4.91022 18.8842 4.93697C18.8313 4.884 18.7784 4.83103 18.7255 4.77806C18.5957 4.9045 18.4724 5.0281 18.3619 5.17203C18.2692 5.28392 18.1843 5.36751 18.0742 5.46006C17.936 5.57655 17.7996 5.69409 17.6676 5.81761C17.636 5.8467 17.6043 5.87579 17.5717 5.90576C17.4951 5.99438 17.4951 5.99438 17.5254 6.1135C17.5374 6.14477 17.5494 6.17605 17.5618 6.20827C17.5307 6.19624 17.4997 6.18422 17.4677 6.17183C17.3481 6.14167 17.3481 6.14167 17.2567 6.21802C17.2259 6.2499 17.1951 6.28178 17.1634 6.31462C17.1122 6.36686 17.1122 6.36686 17.0599 6.42015C17.0248 6.4573 16.9897 6.49444 16.9535 6.53271C16.9184 6.56863 16.8833 6.60455 16.8471 6.64155C16.6688 6.82546 16.5049 7.01434 16.3452 7.21471C16.2818 7.27289 16.2169 7.32942 16.1501 7.38356C16.014 7.49286 16.014 7.49286 15.922 7.63848C15.8871 7.63848 15.8522 7.63848 15.8162 7.63848C15.7994 7.68125 15.7994 7.68125 15.7822 7.72488C15.6838 7.89696 15.5487 8.02528 15.4085 8.16301C15.3788 8.19266 15.349 8.2223 15.3184 8.25284C15.2234 8.34737 15.128 8.44152 15.0327 8.53567C14.9691 8.59879 14.9056 8.66194 14.8421 8.7251C14.7247 8.84171 14.6073 8.95817 14.4897 9.07447C14.2423 9.31936 14.0052 9.56521 13.7824 9.83283C13.7553 9.86035 13.7282 9.88787 13.7003 9.91622C13.6654 9.91622 13.6305 9.91622 13.5945 9.91622C13.5771 9.96866 13.5596 10.0211 13.5416 10.0751C13.5067 10.0751 13.4718 10.0751 13.4358 10.0751C13.4184 10.1276 13.4009 10.18 13.3829 10.234C13.2955 10.3055 13.2072 10.3761 13.1185 10.4459C13.089 10.4853 13.0595 10.5246 13.0292 10.5651C13.0063 10.5957 12.9834 10.6263 12.9598 10.6578C12.9249 10.6578 12.8899 10.6578 12.854 10.6578C12.8398 10.6917 12.8256 10.7255 12.811 10.7604C12.7482 10.8697 12.7482 10.8697 12.5895 10.9227C12.5541 10.9932 12.5189 11.0639 12.4837 11.1345C12.3851 11.2218 12.3851 11.2218 12.2669 11.3098C11.7732 11.704 11.7732 11.704 11.4887 12.2509C11.473 12.4316 11.4715 12.6069 11.4758 12.7883C11.4752 12.8885 11.4752 12.8885 11.4747 12.9906C11.4743 13.1315 11.4746 13.272 11.4764 13.4128C11.4786 13.6166 11.4779 13.8202 11.4761 14.0239C11.4733 14.4021 11.4738 14.7803 11.475 15.1585C11.4756 15.3467 11.4757 15.5349 11.476 15.7231C11.4765 16.1977 11.4776 16.6722 11.4787 17.1467C11.4798 17.6625 11.4809 18.1784 11.4815 18.6942C11.4817 18.9162 11.4823 19.1383 11.483 19.3603C11.4835 19.5311 11.4836 19.7018 11.4838 19.8726C11.4841 19.9325 11.4844 19.9925 11.4846 20.0544C11.4847 20.4558 11.4618 20.8522 11.4258 21.252C11.4607 21.2694 11.4956 21.2869 11.5315 21.3049C11.4792 21.3049 11.4268 21.3049 11.3729 21.3049C11.3707 21.3639 11.3685 21.4229 11.3662 21.4837C11.3017 21.9713 10.991 22.2985 10.6195 22.5926C10.1695 22.8689 9.74219 22.8646 9.23032 22.864C9.1474 22.8645 9.06447 22.865 8.98155 22.8656C8.75742 22.8671 8.5333 22.8676 8.30917 22.8679C8.07458 22.8684 7.83998 22.8698 7.60539 22.8711C7.1616 22.8734 6.71781 22.8749 6.27401 22.8761C5.76857 22.8776 5.26314 22.8799 4.75771 22.8823C3.71841 22.8872 2.67911 22.891 1.63981 22.8941C1.62235 22.929 1.6049 22.964 1.58691 23C1.552 23 1.51709 23 1.48112 23C1.48112 22.9301 1.48112 22.8602 1.48112 22.7881C1.43857 22.7859 1.39602 22.7837 1.35218 22.7815C0.942887 22.6808 0.601611 22.3954 0.370279 22.0465C0.201563 21.727 0.0977147 21.4431 0.102488 21.0798C0.102965 21.0326 0.103443 20.9853 0.103934 20.9366C0.104548 20.9008 0.105162 20.8651 0.105794 20.8282C0.070882 20.8107 0.03597 20.7932 0 20.7752C0.00860415 20.7459 0.0172075 20.7167 0.0260724 20.6865C0.0558163 20.5499 0.0592419 20.428 0.0589022 20.2882C0.0588984 20.2325 0.0588947 20.1767 0.0588909 20.1193C0.0584809 20.0279 0.0584809 20.0279 0.0580627 19.9346C0.0579469 19.8379 0.0579469 19.8379 0.0578287 19.7392C0.057627 19.5985 0.0573292 19.4578 0.056873 19.3172C0.0561509 19.0917 0.0558442 18.8662 0.0555961 18.6407C0.0549112 18.0784 0.053638 17.516 0.0523481 16.9536C0.0498209 15.8436 0.0490052 14.7337 0.0525822 13.6237C0.0528927 13.5197 0.0531214 13.4157 0.053349 13.3117C0.0542455 12.9336 0.056469 12.5556 0.0610217 12.1776C0.0621962 12.0661 0.0629474 11.9546 0.0632268 11.8431C0.0653767 11.1701 0.0908182 10.6009 0.476073 10.0222C0.510985 10.0222 0.545897 10.0222 0.581867 10.0222C0.594277 9.99239 0.606687 9.96262 0.619474 9.93195C0.703881 9.78134 0.808755 9.67886 0.93231 9.55867C0.975541 9.51633 1.01877 9.474 1.06331 9.43038C1.09645 9.39842 1.12959 9.36647 1.16373 9.33354C1.13755 9.2811 1.13755 9.2811 1.11084 9.2276C1.18066 9.2276 1.25049 9.2276 1.32243 9.2276C1.32243 9.19264 1.32243 9.15768 1.32243 9.12166C1.39516 9.03558 1.39516 9.03558 1.48112 8.96275C1.51603 8.96275 1.55094 8.96275 1.58691 8.96275C1.63928 8.85787 1.63928 8.85787 1.6927 8.75087C1.72762 8.75087 1.76253 8.75087 1.7985 8.75087C1.83341 8.68094 1.86832 8.61102 1.90429 8.53898C1.9392 8.53898 1.97412 8.53898 2.01009 8.53898C2.02754 8.48654 2.045 8.4341 2.06298 8.38007C2.13799 8.30806 2.13799 8.30806 2.23159 8.2344C2.40548 8.0918 2.5448 7.9377 2.6839 7.76139C2.70593 7.73831 2.72795 7.71523 2.75064 7.69145C2.78556 7.69145 2.82047 7.69145 2.85644 7.69145C2.86844 7.66195 2.88044 7.63245 2.89281 7.60206C3.02117 7.37558 3.1967 7.20734 3.43831 7.10877C3.43831 7.07381 3.43831 7.03885 3.43831 7.00283C3.53749 6.89027 3.53749 6.89027 3.64989 6.79095C3.68481 6.79095 3.71972 6.79095 3.75569 6.79095C3.75569 6.75599 3.75569 6.72103 3.75569 6.68501C3.84147 6.59441 3.93018 6.50657 4.02017 6.42015C4.07016 6.36923 4.11996 6.31812 4.16957 6.26683C4.22005 6.2153 4.27054 6.16378 4.32102 6.11226C4.3467 6.08566 4.37237 6.05907 4.39882 6.03167C4.46457 5.96491 4.53311 5.90094 4.60204 5.83747C4.63695 5.83747 4.67186 5.83747 4.70783 5.83747C4.73402 5.75881 4.73402 5.75881 4.76073 5.67856C4.79564 5.67856 4.83055 5.67856 4.86652 5.67856C4.88071 5.64469 4.89489 5.61083 4.9095 5.57593C4.97232 5.46668 4.97232 5.46668 5.13101 5.41371C5.14519 5.38448 5.15938 5.35526 5.17399 5.32515C5.26736 5.14184 5.40883 5.01425 5.55419 4.87076C5.5831 4.8414 5.61201 4.81203 5.6418 4.78178C5.85816 4.56618 5.85816 4.56618 5.97736 4.56618C5.97736 4.53121 5.97736 4.49625 5.97736 4.46023C6.06063 4.37809 6.06063 4.37809 6.17242 4.28477C6.39428 4.09552 6.60123 3.90672 6.78073 3.6756C6.81237 3.63737 6.84401 3.59913 6.87661 3.55973C6.91152 3.55973 6.94643 3.55973 6.9824 3.55973C6.9824 3.52477 6.9824 3.48981 6.9824 3.45379C7.01732 3.45379 7.05223 3.45379 7.0882 3.45379C7.0882 3.41883 7.0882 3.38387 7.0882 3.34785C7.12311 3.34785 7.15802 3.34785 7.19399 3.34785C7.19399 3.31289 7.19399 3.27793 7.19399 3.24191C7.42576 2.99125 7.68568 2.76693 7.93941 2.53891C7.98722 2.49512 7.98722 2.49512 8.03601 2.45045C8.07919 2.41137 8.07919 2.41137 8.12324 2.3715C8.20446 2.29031 8.20446 2.29031 8.25241 2.17919C8.33361 2.0202 8.47406 1.95852 8.62221 1.86467C8.71711 1.77867 8.71711 1.77867 8.7809 1.70575C8.76345 1.67079 8.74599 1.63583 8.72801 1.59981C8.74546 1.56485 8.76292 1.52989 8.7809 1.49387C8.88008 1.46408 8.88008 1.46408 8.99249 1.4409C9.04486 1.42342 9.09723 1.40594 9.15118 1.38793C9.13373 1.33549 9.11627 1.28305 9.09829 1.22902C9.12774 1.22683 9.1572 1.22465 9.18755 1.2224C9.3379 1.16543 9.39858 1.07615 9.49522 0.951335C9.61751 0.807452 9.76038 0.689746 9.90393 0.567711C10.0019 0.485728 10.0019 0.485728 10.1033 0.381486C10.2006 0.36845 10.2006 0.36845 10.3209 0.368746C10.3664 0.3686 10.412 0.368454 10.4589 0.368304C10.509 0.368685 10.559 0.369066 10.6106 0.369459C10.6633 0.369443 10.7159 0.369428 10.7701 0.369412C10.9447 0.369486 11.1193 0.370311 11.2939 0.37114C11.4147 0.371337 11.5356 0.371488 11.6564 0.371594C11.9748 0.371999 12.2933 0.37304 12.6117 0.374211C12.9365 0.375294 13.2613 0.375779 13.5861 0.376313C14.2236 0.37745 14.8612 0.379259 15.4988 0.381486C15.4988 0.451407 15.4988 0.521328 15.4988 0.593369C15.4639 0.593369 15.429 0.593369 15.393 0.593369C15.3581 0.66329 15.3232 0.733211 15.2872 0.805252C15.2523 0.805252 15.2174 0.805252 15.1814 0.805252C15.1673 0.836935 15.1531 0.868618 15.1385 0.901261C15.0415 1.08015 14.9163 1.17659 14.7583 1.30516C14.6274 1.41706 14.5287 1.50621 14.4409 1.65278C14.4409 1.70522 14.4409 1.75767 14.4409 1.8117C14.2293 1.91764 14.2293 1.91764 14.1264 1.96233C14.0033 2.03171 13.9393 2.10487 13.8524 2.2156C13.7726 2.31699 13.7726 2.31699 13.7003 2.39437C13.6654 2.39437 13.6305 2.39437 13.5945 2.39437C13.5945 2.44682 13.5945 2.49926 13.5945 2.55329C13.5422 2.55329 13.4898 2.55329 13.4358 2.55329C13.4358 2.58825 13.4358 2.62321 13.4358 2.65923C13.4009 2.65923 13.366 2.65923 13.33 2.65923C13.3126 2.71167 13.2951 2.76411 13.2771 2.81814C13.1943 2.89801 13.1943 2.89801 13.0887 2.98367C12.8821 3.15864 12.7054 3.34847 12.5292 3.55373C12.2552 3.86555 12.2552 3.86555 12.0605 3.93053C12.0245 4.00075 11.9893 4.07146 11.9547 4.14241C11.8813 4.22319 11.8049 4.30141 11.7266 4.37747C11.6839 4.41926 11.6411 4.46105 11.597 4.5041C11.558 4.54207 11.5189 4.58003 11.4787 4.61915C11.4328 4.66612 11.387 4.7131 11.3398 4.76151C11.2063 4.8917 11.0659 5.00918 10.9208 5.12609C10.8297 5.20433 10.8297 5.20433 10.791 5.36074C10.7063 5.44619 10.7063 5.44619 10.5992 5.5362C10.5421 5.58485 10.5421 5.58485 10.4837 5.63449C10.4455 5.66651 10.4072 5.69854 10.3678 5.73153C10.0936 5.96343 9.83142 6.19297 9.60411 6.47312C9.46499 6.63622 9.31715 6.76186 9.15118 6.89689C8.95838 7.08449 8.77616 7.2802 8.59576 7.47957C8.41529 7.67902 8.23163 7.873 8.04034 8.06225C7.9808 8.1218 7.92129 8.1814 7.86182 8.24102C7.39236 8.71114 6.9229 9.18125 6.45343 9.65137C6.47089 9.68633 6.48835 9.72129 6.50633 9.75731C6.46815 9.76933 6.42996 9.78135 6.39062 9.79373C6.21533 9.87564 6.10939 9.99114 5.97736 10.1281C5.91706 10.1887 5.85665 10.2492 5.79615 10.3096C5.76313 10.3426 5.73012 10.3757 5.6961 10.4098C5.28602 10.8204 4.87595 11.2311 4.46587 11.6417C4.43482 11.6729 4.40377 11.704 4.37178 11.7361C4.29329 11.8145 4.21411 11.8923 4.13485 11.9699C3.9537 12.1565 3.90117 12.2641 3.89965 12.5194C3.89906 12.5758 3.89847 12.6322 3.89786 12.6903C3.89774 12.7521 3.89763 12.8139 3.89751 12.8777C3.89698 12.9428 3.89645 13.0079 3.8959 13.075C3.89455 13.2536 3.89366 13.4322 3.89297 13.6108C3.89214 13.7974 3.89073 13.9841 3.88937 14.1707C3.8869 14.5241 3.88495 14.8776 3.8832 15.231C3.88098 15.6728 3.87805 16.1147 3.87512 16.5565C3.86989 17.3447 3.86574 18.133 3.86148 18.9213C5.03103 18.9213 6.20059 18.9213 7.40558 18.9213C7.44049 18.8513 7.4754 18.7814 7.51137 18.7094C7.52883 18.7094 7.54629 18.7094 7.56427 18.7094C7.56674 17.7245 7.56861 16.7396 7.56975 15.7547C7.5703 15.2974 7.57104 14.8401 7.57225 14.3828C7.57331 13.9844 7.57399 13.5859 7.57423 13.1874C7.57436 12.9763 7.57469 12.7652 7.57546 12.5542C7.57617 12.3556 7.5764 12.1571 7.57624 11.9585C7.57627 11.8855 7.57648 11.8126 7.57688 11.7396C7.57741 11.6401 7.57722 11.5407 7.57699 11.4412C7.57709 11.3855 7.57719 11.3298 7.57729 11.2724C7.57406 11.1221 7.57406 11.1221 7.45848 10.9756C7.5283 10.9931 7.59813 11.0106 7.67007 11.0286C7.67225 10.9707 7.67443 10.9128 7.67668 10.8531C7.74892 10.2855 8.16351 9.82847 8.56601 9.45273C8.69894 9.33446 8.69894 9.33446 8.67511 9.12166C8.71329 9.11838 8.75148 9.11511 8.79082 9.11173C8.98831 9.0546 9.06427 8.95384 9.20408 8.80384C9.3256 8.69561 9.44976 8.59065 9.57436 8.48601C9.5569 8.41609 9.53945 8.34617 9.52146 8.27413C9.58038 8.28232 9.58038 8.28232 9.64048 8.29068C9.7975 8.28787 9.7975 8.28787 9.91158 8.15163C9.93994 8.10466 9.96831 8.05768 9.99753 8.00927C9.98008 7.95683 9.96262 7.90439 9.94464 7.85036C10.0843 7.8154 10.2239 7.78044 10.3678 7.74442C10.3678 7.70946 10.3678 7.6745 10.3678 7.63848C10.4743 7.54402 10.5859 7.458 10.6984 7.37094C10.805 7.2727 10.805 7.2727 10.8042 7.12305C10.7998 7.08338 10.7955 7.0437 10.791 7.00283C10.8499 7.01102 10.8499 7.01102 10.91 7.01938C11.067 7.01657 11.067 7.01657 11.1811 6.88034C11.2095 6.83336 11.2378 6.78638 11.2671 6.73798C11.2496 6.68554 11.2322 6.63309 11.2142 6.57906C11.3975 6.52662 11.3975 6.52662 11.5844 6.47312C11.6379 6.31161 11.6379 6.31161 11.5844 6.1553C11.6304 6.16097 11.6764 6.16663 11.7237 6.17247C11.9566 6.15002 12.059 6.04334 12.2126 5.88051C12.2389 5.85494 12.2652 5.82937 12.2924 5.80302C12.416 5.67629 12.4807 5.59952 12.5006 5.42095C12.495 5.3836 12.4895 5.34625 12.4837 5.30777C12.5224 5.31199 12.5611 5.31622 12.601 5.32057C12.7948 5.30371 12.8502 5.23917 12.987 5.10288C13.0325 5.05813 13.078 5.01338 13.1249 4.96728C13.1733 4.91829 13.2217 4.8693 13.2716 4.81882C13.3221 4.76835 13.3728 4.71792 13.4234 4.66752C13.5294 4.56183 13.6348 4.45567 13.7399 4.34916C13.8746 4.21275 14.0105 4.07757 14.1468 3.94272C14.2515 3.83881 14.3555 3.73429 14.4594 3.62956C14.5335 3.55512 14.6081 3.48121 14.6827 3.40731C14.7274 3.36173 14.7721 3.31614 14.8181 3.26918C14.8578 3.22931 14.8974 3.18943 14.9382 3.14835C15.0382 3.00842 15.0411 2.93353 15.0227 2.76517C15.0631 2.76954 15.1035 2.77391 15.1451 2.77841C15.2949 2.78062 15.2949 2.78062 15.3831 2.65923C15.4038 2.62427 15.4246 2.58931 15.4459 2.55329C15.4285 2.51833 15.411 2.48337 15.393 2.44735C15.4105 2.41238 15.4279 2.37742 15.4459 2.3414C15.484 2.34642 15.5221 2.35144 15.5614 2.35661C15.7694 2.33539 15.835 2.24693 15.9792 2.09807C16.0035 2.07338 16.0278 2.04869 16.0528 2.02325C16.13 1.9445 16.2062 1.86489 16.2824 1.78521C16.3346 1.73156 16.3869 1.67797 16.4393 1.62444C16.5673 1.49331 16.6945 1.36139 16.8212 1.22902C16.7863 1.17658 16.7514 1.12414 16.7155 1.07011C16.753 1.07625 16.7905 1.0824 16.8291 1.08873C17.0464 1.06189 17.1389 0.928166 17.2775 0.772145C17.973 0.0339065 19.0965 -0.325133 19.9674 0.381899ZM11.7431 6.20827C11.796 6.31421 11.796 6.31421 11.796 6.31421L11.7431 6.20827ZM11.32 6.63204C11.3374 6.667 11.3549 6.70196 11.3729 6.73798C11.3903 6.70302 11.4078 6.66806 11.4258 6.63204C11.3908 6.63204 11.3559 6.63204 11.32 6.63204Z" fill="#3C3C3C"/>
</svg>
